<?xml version="1.0" standalone="no"?>
<!DOCTYPE svg PUBLIC "-//W3C//DTD SVG 20010904//EN"
 "http://www.w3.org/TR/2001/REC-SVG-20010904/DTD/svg10.dtd">
<svg version="1.0" xmlns="http://www.w3.org/2000/svg"
 width="200.000000pt" height="200.000000pt" viewBox="0 0 200.000000 200.000000"
 preserveAspectRatio="xMidYMid meet">
<metadata>
Created by potrace 1.11, written by Peter Selinger 2001-2013
</metadata>
<g transform="translate(0.000000,200.000000) scale(0.100000,-0.100000)"
fill="#000000" stroke="none">
<path d="M957 1739 c-12 -7 -17 -21 -16 -42 1 -19 -14 -67 -39 -118 -53 -114
-57 -115 -204 -49 -94 42 -116 56 -128 82 -8 18 -22 36 -31 42 -25 14 -78 -11
-85 -41 -14 -55 39 -99 91 -75 21 10 40 4 127 -33 102 -44 103 -45 109 -82 5
-36 1 -42 -54 -99 -57 -60 -60 -61 -92 -51 -40 12 -73 5 -103 -23 -14 -13 -30
-19 -41 -15 -43 13 -163 76 -157 82 12 12 -28 43 -55 43 -52 0 -67 -73 -20
-96 16 -9 31 -9 46 -2 17 8 39 1 108 -31 73 -33 87 -43 87 -63 0 -13 7 -33 15
-45 14 -20 12 -26 -27 -87 -24 -35 -53 -67 -64 -70 -25 -7 -38 -44 -22 -63 6
-8 23 -13 37 -11 21 2 27 9 29 33 2 17 22 57 46 90 38 54 45 60 73 57 17 -2
45 4 62 12 30 16 32 15 81 -20 40 -29 50 -42 50 -64 0 -32 40 -70 72 -70 11 0
32 13 47 29 20 21 55 37 136 63 l110 34 34 -23 c34 -23 63 -26 89 -9 10 6 30
-8 68 -45 30 -29 54 -58 54 -65 0 -14 33 -44 48 -44 19 0 42 30 42 55 0 28
-31 49 -58 40 -13 -3 -33 9 -65 42 -42 42 -46 50 -41 82 4 28 1 42 -16 64 -12
15 -28 27 -36 27 -12 0 -14 23 -12 138 4 163 -2 160 132 82 81 -48 91 -58 169
-166 45 -62 84 -124 87 -136 8 -32 54 -32 58 -1 2 13 -4 26 -16 32 -10 5 -54
58 -97 118 l-77 107 63 58 c35 32 74 60 87 63 12 3 33 7 46 10 49 10 32 95
-19 95 -25 0 -55 -33 -55 -60 0 -9 -8 -22 -18 -30 -9 -8 -42 -36 -73 -62 l-55
-47 -97 56 c-68 38 -97 61 -97 74 0 30 -40 61 -72 54 -21 -5 -37 2 -80 36 -89
70 -118 98 -118 113 0 9 -9 20 -19 26 -23 12 -22 12 -44 -1z m211 -206 c7 -7
11 -16 10 -20 -4 -16 13 -51 28 -57 12 -4 14 -30 13 -136 0 -71 -5 -132 -10
-136 -19 -11 -277 213 -300 261 -17 34 -16 35 25 124 22 49 48 91 56 93 12 3
121 -76 178 -129z m-125 -268 c58 -49 108 -96 111 -103 3 -7 0 -27 -7 -44 -11
-28 -22 -34 -121 -64 l-109 -33 -20 26 c-18 22 -26 25 -61 20 -36 -5 -47 -1
-89 29 -38 28 -46 39 -42 57 4 13 1 36 -5 52 -10 27 -8 32 50 90 50 50 66 61
88 58 15 -3 36 2 47 11 24 18 17 22 158 -99z"/>
<path d="M914 812 c-21 -14 -23 -40 -3 -58 16 -14 24 -15 44 -6 25 12 30 27
19 56 -6 17 -41 21 -60 8z"/>
<path d="M109 779 c-6 -3 -8 -72 -7 -160 l3 -154 120 0 120 0 0 30 0 30 -75 1
c-41 1 -80 2 -86 3 -9 1 -12 35 -6 63 1 3 32 6 70 5 l67 -1 0 29 0 30 -70 0
-70 1 -1 32 c0 36 -3 35 104 33 l62 -1 0 30 c0 24 -4 30 -22 31 -139 3 -201 3
-209 -2z"/>
<path d="M399 673 c-2 -87 1 -196 6 -203 3 -5 18 -7 33 -6 26 3 27 5 32 78 5
81 19 108 56 108 35 0 53 -36 50 -100 -2 -71 6 -89 41 -86 28 3 28 4 29 82 1
43 -3 91 -8 106 -17 49 -83 71 -145 47 -19 -7 -29 -7 -31 0 -2 6 -17 11 -33
11 -27 0 -29 -3 -30 -37z"/>
<path d="M710 590 c0 -66 3 -120 8 -121 64 -9 62 -10 63 53 1 32 3 63 4 68 1
6 3 17 4 25 0 8 18 19 39 26 31 9 38 16 36 33 -1 11 -3 24 -3 29 -2 12 -36 8
-59 -9 -20 -14 -22 -14 -22 0 0 12 -10 16 -35 16 l-35 0 0 -120z"/>
<path d="M907 703 c-10 -18 -4 -233 7 -234 6 0 21 -2 34 -5 16 -3 22 1 23 14
4 50 5 209 1 220 -4 13 -58 17 -65 5z"/>
<path d="M1087 698 c-37 -13 -66 -71 -61 -122 8 -90 75 -130 169 -101 19 6 21
2 20 -41 0 -43 3 -49 25 -55 14 -4 19 -7 13 -8 -7 -1 -13 -5 -13 -10 0 -4 17
-8 37 -7 29 1 38 -3 41 -17 2 -11 -2 -18 -10 -16 -35 4 -58 -3 -68 -22 -17
-31 3 -49 56 -47 43 2 44 3 44 38 0 54 -10 80 -34 86 -20 5 -21 10 -21 167 l0
162 -29 3 c-16 2 -32 -2 -36 -8 -6 -9 -13 -9 -28 -1 -25 13 -67 13 -105 -1z
m121 -81 c25 -53 -22 -113 -72 -94 -8 3 -22 17 -31 31 -15 22 -15 28 -1 61 14
34 18 36 53 33 30 -2 41 -9 51 -31z m112 -322 c0 -18 -34 -37 -54 -29 -16 6
-21 26 -9 37 13 14 63 7 63 -8z"/>
<path d="M1351 623 c2 -100 17 -137 62 -153 40 -13 57 -13 90 4 22 12 27 12
27 2 0 -9 11 -13 33 -12 l32 2 0 119 0 120 -32 3 c-18 2 -33 0 -34 -5 -1 -4
-2 -38 -2 -75 -3 -93 -34 -129 -83 -94 -22 16 -21 13 -23 106 l-1 70 -36 0
-35 0 2 -87z"/>
<path d="M1709 695 c-57 -31 -78 -109 -46 -172 17 -32 77 -63 123 -63 30 0 94
26 94 38 0 19 -35 41 -50 32 -36 -23 -110 -2 -110 31 0 5 33 8 73 8 109 -2
107 -2 107 29 0 33 -30 81 -62 98 -30 17 -97 17 -129 -1z m110 -61 c21 -19 8
-27 -45 -26 -58 2 -66 8 -35 33 25 21 54 18 80 -7z"/>
<path d="M1010 420 c0 -5 5 -10 10 -10 6 0 10 5 10 10 0 6 -4 10 -10 10 -5 0
-10 -4 -10 -10z"/>
<path d="M604 412 c3 -5 24 -8 46 -7 22 1 43 -2 46 -6 3 -5 -18 -37 -46 -73
-27 -35 -50 -66 -50 -70 0 -3 32 -6 71 -6 38 0 68 4 65 9 -3 4 -25 7 -48 6
-24 -1 -46 0 -51 2 -7 4 80 125 95 131 24 11 -12 22 -68 22 -36 0 -63 -4 -60
-8z"/>
<path d="M906 382 c-11 -14 -14 -22 -8 -18 7 4 12 4 13 -1 1 -4 3 -25 4 -46 2
-21 6 -45 9 -53 6 -17 42 -19 52 -2 5 8 2 9 -9 5 -21 -8 -31 9 -33 56 -1 33 6
42 29 38 4 0 7 4 7 9 0 6 -7 10 -15 10 -7 0 -18 6 -22 14 -6 11 -12 9 -27 -12z"/>
<path d="M774 358 c-24 -27 -23 -61 1 -88 22 -24 68 -26 86 -3 12 15 12 16 -6
9 -31 -13 -58 -9 -73 11 -12 17 -9 18 43 21 63 3 71 18 29 51 -34 27 -56 26
-80 -1z m84 -26 c2 -6 -14 -10 -42 -10 -41 0 -45 1 -36 18 5 10 15 20 22 23
15 5 50 -14 56 -31z"/>
<path d="M1010 315 c0 -37 4 -65 10 -65 6 0 10 28 10 65 0 37 -4 65 -10 65 -6
0 -10 -28 -10 -65z"/>
<path d="M1080 373 c-2 -14 -2 -82 -1 -108 2 -33 17 -12 17 23 0 56 9 72 43
72 26 0 31 -4 36 -33 4 -19 5 -42 3 -52 -2 -10 2 -20 8 -22 15 -5 11 92 -5
111 -11 13 -59 15 -79 2 -6 -3 -13 0 -15 6 -4 10 -6 10 -7 1z"/>
</g>
</svg>
